# xmcd
#
# Track frame offsets: 
#        150
#        35862
#        67772
#        93307
#        110827
#        166980
#        173565
#        174684
#
# Disc length: 2720 seconds
#
# Revision: 0
# Processed by: cddbd v1.5.2PL0 Copyright (c) Steve Scherf et al.
# Submitted via: ExactAudioCopyFreeDBPlugin 1.0
#
DISCID=650a9e08
DTITLE=Witch Mountain - South of Salem
DYEAR=2012
DGENRE=Metal
TTITLE0=Wing of the Lord
TTITLE1=Plastic Cage
TTITLE2=South Sugar
TTITLE3=End Game
TTITLE4=Hare's Stare
TTITLE5=End Game (Slight Return)
TTITLE6=Untitled
TTITLE7=Iron Long (2010)
EXTD=
EXTT0=
EXTT1=
EXTT2=
EXTT3=
EXTT4=
EXTT5=
EXTT6=
EXTT7=
PLAYORDER=
